<svg width="120" height="35" viewBox="0 0 120 35" fill="none" xmlns="http://www.w3.org/2000/svg">
<g clip-path="url(#clip0_5063_11634)">
<path d="M16.2479 20.7768C17.0519 20.7768 17.7358 20.4999 18.2638 19.9582C18.7918 19.4285 19.0558 18.7664 19.0558 17.9479C19.0558 15.6487 18.1558 13.6022 16.3319 11.7966C14.5199 9.9909 12.3119 9.1001 9.69591 9.1001C7.06793 9.1001 4.81195 10.0391 2.87998 11.929C0.959991 13.831 0 16.1422 0 18.8507C0 21.5592 0.959991 23.8465 2.86798 25.7483C4.77595 27.6624 7.04393 28.6133 9.70791 28.6133C12.3719 28.6133 14.4599 28.1559 15.9839 27.2409C16.8359 26.6632 17.2559 26.0011 17.2559 25.2669C17.2559 23.7982 16.2599 22.9796 15.0719 22.9796C14.4599 22.9796 13.8359 23.1963 13.1759 23.6298C12.5159 24.0751 11.5319 24.2917 10.1999 24.2917C8.87993 24.2917 7.75193 23.9426 6.79193 23.2686C5.81995 22.5945 5.23195 21.7759 5.01595 20.7768H16.2479ZM12.9359 14.4449C13.8359 15.2033 14.3639 16.0339 14.5199 16.9728H5.01595C5.21995 16.0098 5.75995 15.1672 6.65995 14.4329C7.57193 13.7106 8.61593 13.3495 9.80391 13.3495C10.9919 13.3495 12.0359 13.7106 12.9359 14.4449Z" fill="#1C1C1C"/>
<path d="M34.4041 22.6913C33.4201 23.7385 32.1841 24.2563 30.6722 24.2563C29.1722 24.2563 27.9001 23.7145 26.8922 22.6431C25.8841 21.5476 25.3682 20.2837 25.3682 18.8151C25.3682 17.3465 25.8841 16.0825 26.9162 15.0352C27.9362 13.9879 29.208 13.4583 30.6962 13.4583C32.1841 13.4583 33.4201 13.9518 34.4041 14.963C35.3762 15.9742 35.8562 17.2381 35.8562 18.803C35.8562 20.3679 35.3762 21.644 34.4041 22.6913ZM40.332 2.40755C40.332 1.76956 40.092 1.20378 39.612 0.722267C39.132 0.240755 38.568 0 37.9201 0C37.2841 0 36.7201 0.240755 36.2401 0.722267C35.7601 1.20378 35.5201 1.76956 35.5201 2.40755V11.0507C34.152 9.71451 32.4362 9.06445 30.4322 9.06445C27.8041 9.06445 25.5362 9.99138 23.6522 11.8933C21.7322 13.7953 20.7842 16.1066 20.7842 18.8151C20.7842 21.5356 21.7202 23.8469 23.5682 25.7489C25.4162 27.6628 27.6601 28.6139 30.288 28.6139C32.292 28.638 34.092 27.9518 35.6641 26.5916C35.6641 27.073 35.892 27.5304 36.3241 27.9518C36.768 28.3973 37.2959 28.6139 37.9441 28.6139C38.5801 28.6139 39.132 28.373 39.612 27.9035C40.092 27.4221 40.332 26.8442 40.332 26.2063V2.40755Z" fill="#1C1C1C"/>
<path d="M48.8111 11.3747C48.8111 10.7367 48.5711 10.1589 48.0911 9.68943C47.6111 9.2079 47.0472 8.96716 46.4111 8.96716C45.763 8.96716 45.199 9.2079 44.719 9.68943C44.239 10.1589 43.999 10.7367 43.999 11.3747V18.778C43.999 21.4865 44.983 23.7737 46.903 25.6755C48.8351 27.5775 51.1869 28.5286 53.9111 28.5286C56.6469 28.5286 58.975 27.5896 60.9069 25.6998C62.8148 23.8218 63.7748 21.5226 63.7748 18.778V11.3747C63.7748 10.7126 63.5348 10.1469 63.0548 9.66534C62.5748 9.2079 62.0109 8.96716 61.363 8.96716C60.7269 8.96716 60.163 9.2079 59.683 9.68943C59.203 10.1589 58.963 10.7367 58.963 11.3747V18.778C58.963 20.2707 58.483 21.5226 57.5109 22.5699C56.539 23.6172 55.3511 24.1348 53.899 24.1348C52.4469 24.1348 51.2351 23.6172 50.263 22.5699C49.2911 21.5226 48.8111 20.2707 48.8111 18.778V11.3747Z" fill="#1C1C1C"/>
<path fill-rule="evenodd" clip-rule="evenodd" d="M81.9106 3.61115H104.806C113.159 3.61115 119.999 10.4606 119.999 18.851C119.999 27.2292 113.159 34.0909 104.806 34.0909H81.9106C73.5588 34.0909 66.7188 27.2292 66.7188 18.851C66.7188 10.4606 73.5588 3.61115 81.9106 3.61115ZM89.195 11.9055C87.2871 10.0035 84.9232 9.0766 82.1871 9.0766C79.4392 9.0766 77.0992 10.0035 75.1792 11.8814C73.2473 13.7834 72.2992 16.0826 72.2992 18.8152C72.2992 21.5478 73.2473 23.859 75.1671 25.761C77.0632 27.6749 79.4032 28.626 82.1632 28.626C84.9232 28.626 87.2871 27.6749 89.195 25.737C91.115 23.8229 92.075 21.5116 92.075 18.8152C92.075 16.1187 91.115 13.8075 89.195 11.9055ZM85.955 22.6552C84.9471 23.7266 83.6753 24.2684 82.1871 24.2684C80.6992 24.2684 79.4271 23.7266 78.4192 22.6552C77.3992 21.5598 76.8832 20.2958 76.8832 18.8272C76.8832 17.3586 77.3992 16.0946 78.4313 15.0474C79.4632 14.0001 80.7111 13.4704 82.1992 13.4704C83.6992 13.4704 84.9471 14.0001 85.955 15.0474C86.975 16.0946 87.4792 17.3586 87.4792 18.8272C87.4792 20.2958 86.975 21.5598 85.955 22.6552ZM109.463 26.2305C109.463 26.8684 109.691 27.4342 110.183 27.9159C110.651 28.3972 111.227 28.6379 111.863 28.6379C112.499 28.6379 113.075 28.3972 113.555 27.9159C114.035 27.4342 114.275 26.8684 114.275 26.2305V18.8152C114.275 16.1187 113.291 13.8075 111.371 11.9055C109.439 10.0035 107.087 9.0766 104.363 9.0766C101.627 9.0766 99.2871 10.0035 97.379 11.8814C95.459 13.7834 94.499 16.0826 94.499 18.8152V26.2305C94.499 26.8924 94.739 27.4464 95.219 27.9159C95.699 28.3972 96.2629 28.6379 96.9111 28.6379C97.5471 28.6379 98.1111 28.3972 98.5911 27.9159C99.0711 27.4342 99.3111 26.8684 99.3111 26.2305V18.8152C99.3111 17.3345 99.7911 16.0826 100.763 15.0353C101.735 13.988 102.947 13.4704 104.387 13.4704C105.839 13.4704 107.039 13.988 108.011 15.0353C108.983 16.0826 109.463 17.3345 109.463 18.8152V26.2305Z" fill="#006AFF"/>
</g>
<defs>
<clipPath id="clip0_5063_11634">
<rect width="120" height="34.0909" fill="white"/>
</clipPath>
</defs>
</svg>
